<svg xmlns="http://www.w3.org/2000/svg" width="59.685" height="66.068" viewBox="0 0 59.685 66.068"><g transform="translate(-1581.77 -146.984)"><g transform="translate(1581.77 146.984)"><g transform="translate(0)"><g transform="translate(0 0)"><path d="M997.7,135.919a19.077,19.077,0,0,1-2.05-.526,9.466,9.466,0,0,1-6.35-7.411c-.021-.105-.038-.211-.063-.316-.014-.063-.037-.123-.083-.268h-.657c-4.085,0-8.171.033-12.255-.009A7.448,7.448,0,0,1,976.1,112.5c1.2-.114,1.324-.239,1.324-1.468,0-4.128-.085-8.259.018-12.384.229-9.153,4.584-15.678,12.853-19.545a1.669,1.669,0,0,0,1.21-1.914,7.174,7.174,0,0,1,7.274-7.335,7.266,7.266,0,0,1,7.211,7.437c-.011.407-.058.812-.092,1.281.3.134.633.272.958.424,7.616,3.569,12,9.524,13.032,17.868a45.388,45.388,0,0,1,.14,5.281c.019,3.01,0,6.02.006,9.03,0,1.044.173,1.23,1.207,1.315a7.647,7.647,0,0,1,7.2,6.115,7.444,7.444,0,0,1-7.231,8.787c-4.063.036-8.127.008-12.191.008h-.532a30.727,30.727,0,0,1-1.5,3.711,9.2,9.2,0,0,1-6.746,4.689,2.287,2.287,0,0,0-.352.122Zm1.022-12.78h17.224c1.72,0,3.441.022,5.16-.009a3.18,3.18,0,0,0,3.172-3.645,3.4,3.4,0,0,0-3.413-2.759,5.1,5.1,0,0,1-5.087-5.422c0-4-.014-8,0-12a18.02,18.02,0,0,0-1.2-6.617,16.962,16.962,0,0,0-32.876,5.5c-.044,4.451,0,8.9-.019,13.353a5.082,5.082,0,0,1-4.1,5.086c-.565.117-1.158.094-1.727.2a3.166,3.166,0,0,0-2.247,4.744,3.292,3.292,0,0,0,3.049,1.577Q987.69,123.129,998.721,123.139Zm-5.139,4.283a5.246,5.246,0,0,0,5.363,4.23c2.41-.079,4.788-2.113,4.92-4.23Zm8.082-50.006a2.826,2.826,0,0,0-1.374-2.873,3,3,0,0,0-3.387.195,2.677,2.677,0,0,0-1.085,2.678Z" transform="translate(-968.881 -69.851)" fill="#707070"/></g></g></g><circle cx="8.5" cy="8.5" r="8.5" transform="translate(1622 159)" fill="#e00000"/></g></svg>