<svg xmlns="http://www.w3.org/2000/svg" width="71.697" height="68.124" viewBox="0 0 71.697 68.124"><g transform="translate(0)"><path d="M113.411,136.919c0-1.6.006-3.2,0-4.8a4.14,4.14,0,0,1,.284-1.559,5.59,5.59,0,0,1,.344-.851,4.318,4.318,0,0,1,.667-.847,7.2,7.2,0,0,1,1.006-.823,4.1,4.1,0,0,1,.833-.38,8.567,8.567,0,0,1,.831-.264,1.373,1.373,0,0,1,.356-.024q1.887,0,3.774,0a.81.81,0,0,0,.889-.54c.078-.226.185-.442.284-.661.133-.295.27-.588.407-.881.057-.122.119-.242.174-.365.206-.46.388-.931.621-1.377.207-.4.477-.758.7-1.144.173-.294.314-.607.488-.9.144-.243.312-.472.477-.7.229-.321.458-.642.7-.952.229-.293.485-.567.711-.862a1.959,1.959,0,0,0,.195-.407c.046-.1.137-.221.118-.313a2.959,2.959,0,0,0-.223-.615,7.046,7.046,0,0,0-.336-.634c-.236-.4-.485-.794-.719-1.2-.078-.134-.119-.288-.193-.425-.106-.2-.237-.381-.337-.581a8.83,8.83,0,0,1-.41-.892,3.465,3.465,0,0,1-.258-.931,2.514,2.514,0,0,1,.073-1.327.339.339,0,0,0,.027-.115,3.223,3.223,0,0,1,.594-1.581,8.171,8.171,0,0,1,.8-1.036,4.1,4.1,0,0,1,.782-.543c.433-.275.867-.548,1.309-.809.312-.184.639-.342.954-.52.378-.214.748-.442,1.125-.657.325-.185.657-.357.982-.543.363-.208.72-.429,1.083-.638.33-.19.67-.364,1-.559.286-.17.555-.368.84-.539s.588-.325.883-.486a8.476,8.476,0,0,1,.788-.422c.227-.095.493-.1.719-.2a3.611,3.611,0,0,1,1.689-.122,4.776,4.776,0,0,1,1.009.254,3.432,3.432,0,0,1,.634.214,3.8,3.8,0,0,1,.642.432,4.131,4.131,0,0,1,.652.608c.265.333.484.7.722,1.058.133.2.274.392.395.6.163.276.307.564.464.844.177.316.351.633.541.941.136.219.209.484.46.625.293.165.578.324.924.133a.654.654,0,0,1,.256-.044,22.175,22.175,0,0,0,2.3-.19,22.433,22.433,0,0,1,4.939.063c.345.034.689.086,1.033.131a.476.476,0,0,1,.163.029c.429.237.769.011,1.1-.22a1.08,1.08,0,0,0,.24-.321c.15-.238.3-.476.435-.721.167-.3.315-.613.481-.914.156-.284.322-.562.489-.839.13-.216.265-.429.4-.641a3.724,3.724,0,0,1,1.117-1.158,6.468,6.468,0,0,1,1.335-.7,4.924,4.924,0,0,1,2.323-.157,3.506,3.506,0,0,1,.977.3c.4.191.777.452,1.168.675.3.17.6.321.9.492.394.229.777.476,1.172.7.306.175.624.326.933.5.279.153.552.316.826.477q.337.2.67.4c.236.144.466.3.705.435.2.115.414.207.615.322.4.23.8.472,1.2.7.3.172.622.311.9.508a3.932,3.932,0,0,1,1.152,1.059c.166.263.351.515.509.783a2.4,2.4,0,0,1,.216.5c.1.328.188.661.278.993a1.148,1.148,0,0,1,.013.142,4.669,4.669,0,0,1-.165,1.75A6.975,6.975,0,0,1,172.94,115c-.128.26-.278.508-.42.76-.1.183-.209.364-.316.545-.137.231-.273.461-.413.69a3.111,3.111,0,0,0-.412.683c-.073.253-.258.475-.09.825.19.395.5.675.715,1.039.146.252.359.463.529.7.278.388.555.777.814,1.178.2.3.362.63.547.943.17.287.351.569.523.855.073.123.136.252.2.379.142.269.285.537.425.807.055.107.108.216.153.328.167.412.326.827.5,1.238.14.338.278.678.446,1,.056.108.2.172.311.252.306.225.66.133.995.136,1.083.01,2.166.006,3.248.006a4.417,4.417,0,0,1,1.144.257,3.9,3.9,0,0,1,1.064.5,3.727,3.727,0,0,1,1.3,1.265c.174.3.375.582.53.89a3.552,3.552,0,0,1,.2.639,9.4,9.4,0,0,1,.142,2.558q.016,4.084,0,8.169a5.953,5.953,0,0,1-.17,1.431,4.294,4.294,0,0,1-.9,1.7,2.853,2.853,0,0,1-.945.824c-.308.142-.576.371-.882.519a3.064,3.064,0,0,1-.722.212,31.776,31.776,0,0,1-4.573.148.8.8,0,0,0-.78.51c-.135.358-.277.714-.434,1.062-.128.285-.291.554-.423.838-.12.258-.208.531-.33.788-.112.236-.253.458-.379.688-.113.207-.219.418-.338.622-.146.253-.3.5-.453.751s-.288.524-.456.771c-.268.394-.556.774-.835,1.161-.22.3-.438.611-.658.915a3.941,3.941,0,0,0-.36.5c-.132.261-.316.481-.138.854.2.419.458.8.658,1.218.149.31.377.58.548.88.224.393.421.8.639,1.2a5.128,5.128,0,0,1,.486,1.429,3.833,3.833,0,0,1,.08,1.115,5,5,0,0,1-.23,1.07,4.839,4.839,0,0,1-.485,1.086,3.976,3.976,0,0,1-1.055,1.2c-.26.188-.518.38-.791.548s-.586.326-.879.49-.6.34-.9.51c-.223.127-.447.252-.668.384s-.45.285-.68.419c-.205.12-.42.224-.626.343-.391.225-.775.462-1.168.684-.316.179-.644.335-.958.518-.384.224-.753.473-1.137.695-.312.18-.638.337-.958.5-.355.184-.7.385-1.068.544a1.964,1.964,0,0,1-.683.164,14.269,14.269,0,0,1-1.621,0,3.49,3.49,0,0,1-.8-.24,2.656,2.656,0,0,1-.494-.187,7.708,7.708,0,0,1-.774-.506,4.394,4.394,0,0,1-.659-.569,5.544,5.544,0,0,1-.506-.727c-.188-.293-.368-.592-.543-.893-.126-.217-.232-.447-.359-.664-.227-.388-.474-.765-.689-1.16a1.966,1.966,0,0,0-.479-.613.791.791,0,0,0-.792-.153.685.685,0,0,1-.205.054c-.761.062-1.534.059-2.28.2a16.867,16.867,0,0,1-3.009.092,20.88,20.88,0,0,1-2.241-.147c-.431-.044-.855-.158-1.282-.245a1.107,1.107,0,0,0-.965.46c-.218.354-.408.725-.621,1.081-.174.29-.373.566-.545.857-.214.363-.407.738-.618,1.1a3.167,3.167,0,0,1-.3.421,5.992,5.992,0,0,1-.629.714,5.224,5.224,0,0,1-.816.554,5.808,5.808,0,0,1-.847.418,2.481,2.481,0,0,1-.733.163,9.327,9.327,0,0,1-1.407,0,4.4,4.4,0,0,1-.959-.268,7.366,7.366,0,0,1-.813-.33c-.191-.092-.363-.225-.547-.333-.4-.235-.8-.462-1.2-.7-.3-.175-.59-.361-.887-.536s-.586-.332-.877-.5c-.316-.185-.627-.379-.945-.561-.283-.162-.576-.308-.858-.471-.322-.186-.634-.39-.958-.574-.385-.219-.783-.418-1.167-.64-.3-.174-.578-.394-.888-.548a3.539,3.539,0,0,1-1.048-.81,5.33,5.33,0,0,1-.528-.672,7.769,7.769,0,0,1-.452-.829,1.765,1.765,0,0,1-.15-.462,4.738,4.738,0,0,1-.146-1.8,5.908,5.908,0,0,1,.608-1.811c.173-.294.379-.569.547-.866.319-.564.62-1.138.931-1.706.129-.236.281-.461.392-.705a.5.5,0,0,0,0-.351,6.154,6.154,0,0,0-.951-1.377c-.231-.3-.446-.622-.662-.938-.159-.231-.308-.469-.461-.7-.144-.22-.3-.434-.43-.659-.236-.392-.469-.785-.69-1.185-.134-.242-.24-.5-.367-.746s-.267-.482-.395-.726a3.864,3.864,0,0,1-.163-.371c-.171-.43-.325-.867-.512-1.29a3.065,3.065,0,0,0-.424-.729.761.761,0,0,0-.6-.274q-1.911.009-3.822,0a5.156,5.156,0,0,1-2.177-.733,3.929,3.929,0,0,1-1.325-1.268c-.119-.192-.266-.366-.385-.559a1.569,1.569,0,0,1-.163-.372c-.067-.222-.111-.45-.174-.674a13.336,13.336,0,0,1-.147-3.245C113.386,138.719,113.411,137.819,113.411,136.919ZM129.555,161.5c.18.092.353.172.519.266.305.173.6.358.909.53s.621.331.925.508.569.361.86.53c.248.145.508.27.761.408.4.218.8.441,1.2.66.2.111.413.214.613.332.222.132.432.285.655.416s.452.232.672.358c.377.217.745.449,1.126.657a.253.253,0,0,0,.223-.075,1.619,1.619,0,0,0,.167-.319c.124-.242.241-.488.374-.724.221-.392.456-.776.676-1.169a7.531,7.531,0,0,1,.5-.926,9.823,9.823,0,0,1,1.055-1.168,4.823,4.823,0,0,1,.928-.657,5.641,5.641,0,0,1,1-.442,6.494,6.494,0,0,1,.882-.176,2.976,2.976,0,0,1,.33-.046,6.6,6.6,0,0,1,1.036-.051c.431.04.852.177,1.282.232a12.6,12.6,0,0,0,1.668.142,17.635,17.635,0,0,0,3.176-.09c.7-.13,1.422-.135,2.133-.2.055,0,.107-.037.161-.039a9.624,9.624,0,0,1,1.2-.028,7.4,7.4,0,0,1,1.085.237,2.975,2.975,0,0,1,.567.172,6.563,6.563,0,0,1,.73.418,6.748,6.748,0,0,1,.766.538,3.7,3.7,0,0,1,.822.918c.259.442.562.86.831,1.3.192.312.362.638.54.958s.343.649.54.957c.071.111.111.342.338.247a2.939,2.939,0,0,0,.371-.219c.2-.12.392-.244.592-.358.135-.076.284-.129.417-.208.205-.121.4-.264.6-.384.392-.227.793-.439,1.185-.666.3-.175.6-.363.9-.546.228-.141.452-.288.683-.425.268-.158.542-.306.812-.459.305-.174.611-.347.914-.524s.583-.346.873-.521c.271-.163.542-.328.838-.508-.078-.073-.134-.105-.161-.153-.173-.306-.327-.624-.511-.923-.365-.594-.78-1.16-1.109-1.772a8.421,8.421,0,0,1-.62-1.547,4.071,4.071,0,0,1-.148-1.159,9.084,9.084,0,0,1,.127-1.283,5.761,5.761,0,0,1,.176-.714,2.086,2.086,0,0,1,.144-.416c.129-.247.275-.485.421-.722.163-.264.319-.534.5-.782.215-.286.472-.541.689-.827.255-.335.5-.678.725-1.037q.553-.9,1.064-1.82c.259-.47.487-.958.725-1.439a3.706,3.706,0,0,0,.172-.406c.063-.179.1-.369.174-.544.131-.306.279-.6.425-.9a5.382,5.382,0,0,1,1.757-2.072,10.173,10.173,0,0,1,.932-.557,2.926,2.926,0,0,1,.862-.324,7.632,7.632,0,0,1,1-.236c1.225-.032,2.452-.017,3.678-.019.313,0,.313,0,.312-.308q-.018-4.479-.035-8.957c0-.094,0-.187,0-.307h-.308q-1.839,0-3.678.008a.977.977,0,0,1-.26-.023c-.284-.079-.57-.157-.847-.257a7.935,7.935,0,0,1-.978-.4c-.254-.131-.457-.366-.715-.482a2.494,2.494,0,0,1-.687-.577,1.864,1.864,0,0,1-.482-.6c-.089-.211-.3-.369-.4-.576-.174-.339-.311-.7-.461-1.049-.062-.145-.107-.3-.174-.439-.123-.261-.262-.515-.387-.775-.18-.375-.346-.758-.534-1.129-.166-.327-.352-.644-.535-.962-.122-.211-.25-.42-.384-.624-.161-.244-.333-.482-.5-.723-.18-.262-.352-.529-.538-.787-.223-.309-.46-.606-.683-.914-.169-.234-.338-.47-.486-.717a6.087,6.087,0,0,1-.4-.763,4.273,4.273,0,0,1-.173-.628c-.087-.349-.189-.7-.251-1.049a8.289,8.289,0,0,1,.137-1.784.223.223,0,0,1,.017-.068q.128-.328.258-.654c.073-.186.132-.38.223-.557.174-.34.368-.671.552-1.006.06-.109.109-.225.177-.329.124-.191.274-.367.387-.565.251-.438.485-.885.725-1.327-.142-.088-.26-.169-.386-.236-.3-.159-.6-.3-.9-.469-.234-.131-.452-.292-.686-.425-.3-.17-.612-.319-.912-.49-.406-.231-.807-.472-1.208-.711-.225-.134-.445-.278-.671-.411-.186-.11-.379-.21-.568-.316-.253-.142-.5-.287-.757-.427-.216-.119-.436-.23-.653-.347s-.432-.227-.641-.352c-.278-.165-.545-.347-.828-.5a.239.239,0,0,0-.222.072c-.172.285-.327.58-.48.875-.213.41-.409.831-.633,1.235-.164.3-.372.568-.541.862a4.288,4.288,0,0,1-1.04,1.259c-.315.249-.631.5-.965.72a3.311,3.311,0,0,1-.662.311,4.715,4.715,0,0,1-.661.188,9.177,9.177,0,0,1-1.287.243,5.723,5.723,0,0,1-1.078-.1c-.367-.045-.731-.115-1.1-.148-.69-.063-1.382-.107-2.073-.161-1.168-.091-2.321.141-3.484.156a.978.978,0,0,0-.141.023,14.4,14.4,0,0,1-1.559.233,6.184,6.184,0,0,1-1.338-.13,5.943,5.943,0,0,1-1.192-.32,4.609,4.609,0,0,1-1-.577,6.857,6.857,0,0,1-.968-.87,9.075,9.075,0,0,1-.733-.989c-.162-.234-.309-.48-.448-.728-.171-.306-.316-.627-.492-.93-.245-.421-.507-.831-.773-1.263a.687.687,0,0,0-.212.05c-.385.229-.762.472-1.147.7-.21.125-.436.225-.646.352-.369.223-.728.465-1.1.687-.328.2-.665.376-1,.565-.292.166-.582.334-.873.5-.2.115-.41.224-.612.342-.487.284-.97.572-1.457.857-.107.062-.223.108-.327.174-.21.132-.415.273-.621.41a2.383,2.383,0,0,0-.291.21,1.5,1.5,0,0,0,.121.188c.192.315.383.632.576.947.109.178.225.351.329.531.123.213.232.435.357.647a9.748,9.748,0,0,1,.527.875,7.918,7.918,0,0,1,.441,1.221,5.049,5.049,0,0,1,.148,1.04,1.974,1.974,0,0,1-.088.883c-.112.278-.042.6-.15.912a5.411,5.411,0,0,1-.455,1.126c-.224.359-.418.738-.663,1.08-.306.425-.653.821-.978,1.232-.109.138-.209.283-.307.429-.139.209-.273.421-.407.634-.122.2-.247.389-.359.59-.123.219-.234.445-.352.668-.182.344-.374.683-.544,1.032-.125.256-.217.528-.332.789-.129.293-.274.578-.4.872-.079.186-.11.4-.2.572a7.765,7.765,0,0,1-.565.928,8.1,8.1,0,0,1-.717.836,4.083,4.083,0,0,1-.634.549,6.01,6.01,0,0,1-.852.476c-.276.128-.578.2-.855.325a2.86,2.86,0,0,1-1.113.252c-1.194.026-2.388.013-3.583.015-.339,0-.339,0-.338.33q.018,4.467.035,8.933c0,.094,0,.188,0,.3.087.006.149.015.21.015,1.075-.005,2.15-.019,3.224-.013a3.33,3.33,0,0,1,1,.1c.364.112.737.2,1.1.32a5.121,5.121,0,0,1,1.441.82,6.059,6.059,0,0,1,1.045,1.135,5.088,5.088,0,0,1,.508.865c.119.235.2.489.3.734.06.146.116.294.183.437s.157.3.231.458c.132.276.252.557.39.831.163.325.339.644.51.966.122.229.235.463.37.685.223.366.458.724.691,1.084.167.258.327.521.508.769.219.3.462.584.686.881.237.315.48.627.686.962a4.892,4.892,0,0,1,.361.785c.074.19.089.4.177.586a3.934,3.934,0,0,1,.235,1.2,4.617,4.617,0,0,1-.237,1.854,4.533,4.533,0,0,1-.465,1.178q-.38.638-.743,1.285c-.264.468-.518.94-.779,1.41C129.74,161.194,129.652,161.333,129.555,161.5Z" transform="translate(-113.391 -102.848)" fill="#707070"/><path d="M235.67,201.914a14.385,14.385,0,0,1,14.535,14.349,13.224,13.224,0,0,1-2.013,7.315,14.043,14.043,0,0,1-12.589,7.008,13.174,13.174,0,0,1-7.469-2.275,14.044,14.044,0,0,1-6.569-12.3,13.47,13.47,0,0,1,2.773-8.225A14.2,14.2,0,0,1,235.67,201.914Zm.76,23.912a9.254,9.254,0,0,0,7.141-3.9,9.016,9.016,0,0,0,1.861-5.6,9.355,9.355,0,0,0-4.335-8.068,8.833,8.833,0,0,0-5.038-1.546,9.384,9.384,0,0,0-8.175,4.343,9.026,9.026,0,0,0-1.551,5.276,9.321,9.321,0,0,0,3.171,7.049A9.73,9.73,0,0,0,236.43,225.826Z" transform="translate(-200.032 -182.193)" fill="#707070"/></g></svg>